# xmcd CD database file
#
# Track frame offsets:
#	150
#	16879
#	37667
#	55436
#	74857
#	93901
#	115499
#	126979
#	146377
#	167127
#
# Disc length: 2496 seconds
#
# Revision: 0
# Processed by: cddbd v1.5.2PL0 Copyright (c) Steve Scherf et al.
# Submitted via: CDex 1.70beta2
#
DISCID=8c09be0a
DTITLE=Carlos Manuel - Malo Cantidad
DYEAR=2001
DGENRE=Salsa
TTITLE0=Malo Cantidad
TTITLE1=Matilda, Matilda (Ni Friío Ni Calor)
TTITLE2=Tu Hombre Soy Yo
TTITLE3=Acabando
TTITLE4=Melón
TTITLE5=Envidia
TTITLE6=Y Si Llego A Besarte
TTITLE7=A Mi Aire
TTITLE8=Vamos A Entretenernos
TTITLE9=Mi Lola
EXTD=YEAR: 2001
EXTT0=
EXTT1=
EXTT2=
EXTT3=
EXTT4=
EXTT5=
EXTT6=
EXTT7=
EXTT8=
EXTT9=
PLAYORDER=
